<svg xmlns="http://www.w3.org/2000/svg">

	<!-- Arrow -->

	<symbol id="top" viewBox="0 0 24 24">
		<title>Top</title>
		<path d="M0 16.67l2.829 2.83 9.175-9.339 9.167 9.339 2.829-2.83-11.996-12.17z"/>
	</symbol>

	<symbol id="right" viewBox="0 0 24 24">
		<title>Right</title>
		<path d="M5 3l3.057-3 11.943 12-11.943 12-3.057-3 9-9z"/>
	</symbol>

	<symbol id="bottom" viewBox="0 0 24 24">
		<title>Bottom</title>
		<path d="M0 7.33l2.829-2.83 9.175 9.339 9.167-9.339 2.829 2.83-11.996 12.17z"/>
	</symbol>

	<symbol id="left" viewBox="0 0 24 24">
		<title>Left</title>
		<path d="M16.67 0l2.83 2.829-9.339 9.175 9.339 9.167-2.83 2.829-12.17-11.996z"/>
	</symbol>


	<!-- Contact -->

    <symbol id="email" viewBox="0 0 24 24">
		<title>Email</title>
		<path d="M12 12.713l-11.985-9.713h23.97l-11.985 9.713zm0 2.574l-12-9.725v15.438h24v-15.438l-12 9.725z"/>
	</symbol>

	<symbol id="phone" viewBox="0 0 24 24">
		<title>Phone</title>
		<path d="M20 22.621l-3.521-6.795c-.008.004-1.974.97-2.064 1.011-2.24 1.086-6.799-7.82-4.609-8.994l2.083-1.026-3.493-6.817-2.106 1.039c-7.202 3.755 4.233 25.982 11.6 22.615.121-.055 2.102-1.029 2.11-1.033z"/>
	</symbol>

	<symbol id="location" viewBox="0 0 24 24">
		<title>Location</title>
		<path d="M12 0c-4.198 0-8 3.403-8 7.602 0 4.198 3.469 9.21 8 16.398 4.531-7.188 8-12.2 8-16.398 0-4.199-3.801-7.602-8-7.602zm0 11c-1.657 0-3-1.343-3-3s1.343-3 3-3 3 1.343 3 3-1.343 3-3 3z"/>
	</symbol>

	<symbol id="clock" viewBox="0 0 24 24">
		<title>Clock</title>
		<path d="M12 0c-6.627 0-12 5.373-12 12s5.373 12 12 12 12-5.373 12-12-5.373-12-12-12zm6 14h-7v-8h2v6h5v2z"/>
	</symbol>


	<!-- Social -->

    <symbol id="facebook" viewBox="0 0 24 24">
		<title>Facebook</title>
		<path d="M9 8h-3v4h3v12h5v-12h3.642l.358-4h-4v-1.667c0-.955.192-1.333 1.115-1.333h2.885v-5h-3.808c-3.596 0-5.192 1.583-5.192 4.615v3.385z"/>
	</symbol>

	<symbol id="twitter" viewBox="0 0 24 24">
		<title>Twitter</title>
		<path d="M24 4.557c-.883.392-1.832.656-2.828.775 1.017-.609 1.798-1.574 2.165-2.724-.951.564-2.005.974-3.127 1.195-.897-.957-2.178-1.555-3.594-1.555-3.179 0-5.515 2.966-4.797 6.045-4.091-.205-7.719-2.165-10.148-5.144-1.29 2.213-.669 5.108 1.523 6.574-.806-.026-1.566-.247-2.229-.616-.054 2.281 1.581 4.415 3.949 4.89-.693.188-1.452.232-2.224.084.626 1.956 2.444 3.379 4.6 3.419-2.07 1.623-4.678 2.348-7.29 2.04 2.179 1.397 4.768 2.212 7.548 2.212 9.142 0 14.307-7.721 13.995-14.646.962-.695 1.797-1.562 2.457-2.549z"/>
	</symbol>

	<symbol id="instagram" viewBox="0 0 24 24">
		<title>Instagram</title>
		<path d="M12 2.163c3.204 0 3.584.012 4.85.07 3.252.148 4.771 1.691 4.919 4.919.058 1.265.069 1.645.069 4.849 0 3.205-.012 3.584-.069 4.849-.149 3.225-1.664 4.771-4.919 4.919-1.266.058-1.644.07-4.85.07-3.204 0-3.584-.012-4.849-.07-3.26-.149-4.771-1.699-4.919-4.92-.058-1.265-.07-1.644-.07-4.849 0-3.204.013-3.583.07-4.849.149-3.227 1.664-4.771 4.919-4.919 1.266-.057 1.645-.069 4.849-.069zm0-2.163c-3.259 0-3.667.014-4.947.072-4.358.2-6.78 2.618-6.98 6.98-.059 1.281-.073 1.689-.073 4.948 0 3.259.014 3.668.072 4.948.2 4.358 2.618 6.78 6.98 6.98 1.281.058 1.689.072 4.948.072 3.259 0 3.668-.014 4.948-.072 4.354-.2 6.782-2.618 6.979-6.98.059-1.28.073-1.689.073-4.948 0-3.259-.014-3.667-.072-4.947-.196-4.354-2.617-6.78-6.979-6.98-1.281-.059-1.69-.073-4.949-.073zm0 5.838c-3.403 0-6.162 2.759-6.162 6.162s2.759 6.163 6.162 6.163 6.162-2.759 6.162-6.163c0-3.403-2.759-6.162-6.162-6.162zm0 10.162c-2.209 0-4-1.79-4-4 0-2.209 1.791-4 4-4s4 1.791 4 4c0 2.21-1.791 4-4 4zm6.406-11.845c-.796 0-1.441.645-1.441 1.44s.645 1.44 1.441 1.44c.795 0 1.439-.645 1.439-1.44s-.644-1.44-1.439-1.44z"/>
	</symbol>

	<symbol id="linkedin" viewBox="0 0 24 24">
		<title>Linkedin</title>
		<path d="M4.98 3.5c0 1.381-1.11 2.5-2.48 2.5s-2.48-1.119-2.48-2.5c0-1.38 1.11-2.5 2.48-2.5s2.48 1.12 2.48 2.5zm.02 4.5h-5v16h5v-16zm7.982 0h-4.968v16h4.969v-8.399c0-4.67 6.029-5.052 6.029 0v8.399h4.988v-10.131c0-7.88-8.922-7.593-11.018-3.714v-2.155z"/>
	</symbol>

	<symbol id="pinterest" viewBox="0 0 24 24">
		<title>Pinterest</title>
		<path d="M12 0c-6.627 0-12 5.372-12 12 0 5.084 3.163 9.426 7.627 11.174-.105-.949-.2-2.405.042-3.441.218-.937 1.407-5.965 1.407-5.965s-.359-.719-.359-1.782c0-1.668.967-2.914 2.171-2.914 1.023 0 1.518.769 1.518 1.69 0 1.029-.655 2.568-.994 3.995-.283 1.194.599 2.169 1.777 2.169 2.133 0 3.772-2.249 3.772-5.495 0-2.873-2.064-4.882-5.012-4.882-3.414 0-5.418 2.561-5.418 5.207 0 1.031.397 2.138.893 2.738.098.119.112.224.083.345l-.333 1.36c-.053.22-.174.267-.402.161-1.499-.698-2.436-2.889-2.436-4.649 0-3.785 2.75-7.262 7.929-7.262 4.163 0 7.398 2.967 7.398 6.931 0 4.136-2.607 7.464-6.227 7.464-1.216 0-2.359-.631-2.75-1.378l-.748 2.853c-.271 1.043-1.002 2.35-1.492 3.146 1.124.347 2.317.535 3.554.535 6.627 0 12-5.373 12-12 0-6.628-5.373-12-12-12z" fill-rule="evenodd" clip-rule="evenodd"/>
	</symbol>

	<symbol id="youtube" viewBox="0 0 24 24">
		<title>Youtube</title>
		<path d="M19.615 3.184c-3.604-.246-11.631-.245-15.23 0-3.897.266-4.356 2.62-4.385 8.816.029 6.185.484 8.549 4.385 8.816 3.6.245 11.626.246 15.23 0 3.897-.266 4.356-2.62 4.385-8.816-.029-6.185-.484-8.549-4.385-8.816zm-10.615 12.816v-8l8 3.993-8 4.007z"/>
	</symbol>

	<symbol id="vimeo" viewBox="0 0 24 24">
		<title>Vimeo</title>
		<path d="M22.875 10.063c-2.442 5.217-8.337 12.319-12.063 12.319-3.672 0-4.203-7.831-6.208-13.043-.987-2.565-1.624-1.976-3.474-.681l-1.128-1.455c2.698-2.372 5.398-5.127 7.057-5.28 1.868-.179 3.018 1.098 3.448 3.832.568 3.593 1.362 9.17 2.748 9.17 1.08 0 3.741-4.424 3.878-6.006.243-2.316-1.703-2.386-3.392-1.663 2.673-8.754 13.793-7.142 9.134 2.807z"/>
	</symbol>

	<symbol id="whatsapp" viewBox="0 0 24 24">
		<title>Whatsapp</title>
		<path d="M.057 24l1.687-6.163c-1.041-1.804-1.588-3.849-1.587-5.946.003-6.556 5.338-11.891 11.893-11.891 3.181.001 6.167 1.24 8.413 3.488 2.245 2.248 3.481 5.236 3.48 8.414-.003 6.557-5.338 11.892-11.893 11.892-1.99-.001-3.951-.5-5.688-1.448l-6.305 1.654zm6.597-3.807c1.676.995 3.276 1.591 5.392 1.592 5.448 0 9.886-4.434 9.889-9.885.002-5.462-4.415-9.89-9.881-9.892-5.452 0-9.887 4.434-9.889 9.884-.001 2.225.651 3.891 1.746 5.634l-.999 3.648 3.742-.981zm11.387-5.464c-.074-.124-.272-.198-.57-.347-.297-.149-1.758-.868-2.031-.967-.272-.099-.47-.149-.669.149-.198.297-.768.967-.941 1.165-.173.198-.347.223-.644.074-.297-.149-1.255-.462-2.39-1.475-.883-.788-1.48-1.761-1.653-2.059-.173-.297-.018-.458.13-.606.134-.133.297-.347.446-.521.151-.172.2-.296.3-.495.099-.198.05-.372-.025-.521-.075-.148-.669-1.611-.916-2.206-.242-.579-.487-.501-.669-.51l-.57-.01c-.198 0-.52.074-.792.372s-1.04 1.016-1.04 2.479 1.065 2.876 1.213 3.074c.149.198 2.095 3.2 5.076 4.487.709.306 1.263.489 1.694.626.712.226 1.36.194 1.872.118.571-.085 1.758-.719 2.006-1.413.248-.695.248-1.29.173-1.414z"/>
	</symbol>

	<symbol id="telegram" viewBox="0 0 24 24">
		<title>Telegram</title>
		<path id="telegram-1" d="M18.384,22.779c0.322,0.228 0.737,0.285 1.107,0.145c0.37,-0.141 0.642,-0.457 0.724,-0.84c0.869,-4.084 2.977,-14.421 3.768,-18.136c0.06,-0.28 -0.04,-0.571 -0.26,-0.758c-0.22,-0.187 -0.525,-0.241 -0.797,-0.14c-4.193,1.552 -17.106,6.397 -22.384,8.35c-0.335,0.124 -0.553,0.446 -0.542,0.799c0.012,0.354 0.25,0.661 0.593,0.764c2.367,0.708 5.474,1.693 5.474,1.693c0,0 1.452,4.385 2.209,6.615c0.095,0.28 0.314,0.5 0.603,0.576c0.288,0.075 0.596,-0.004 0.811,-0.207c1.216,-1.148 3.096,-2.923 3.096,-2.923c0,0 3.572,2.619 5.598,4.062Zm-11.01,-8.677l1.679,5.538l0.373,-3.507c0,0 6.487,-5.851 10.185,-9.186c0.108,-0.098 0.123,-0.262 0.033,-0.377c-0.089,-0.115 -0.253,-0.142 -0.376,-0.064c-4.286,2.737 -11.894,7.596 -11.894,7.596Z"/>
	</symbol>

	<symbol id="facebookm" viewBox="0 0 24 24">
		<title>Facebookm</title>
		<path d="M12 0c-6.627 0-12 4.975-12 11.111 0 3.497 1.745 6.616 4.472 8.652v4.237l4.086-2.242c1.09.301 2.246.464 3.442.464 6.627 0 12-4.974 12-11.111 0-6.136-5.373-11.111-12-11.111zm1.193 14.963l-3.056-3.259-5.963 3.259 6.559-6.963 3.13 3.259 5.889-3.259-6.559 6.963z"/>
	</symbol>

	<symbol id="skype" viewBox="0 0 24 24">
		<title>Skype</title>
		<path d="M22.987 13.966c1.357-7.765-5.416-14.412-13.052-12.979-5.821-3.561-12.503 3.226-8.935 9.029-1.387 7.747 5.384 14.48 13.083 13.01 5.832 3.536 12.493-3.26 8.904-9.06zm-10.603 5.891c-3.181 0-6.378-1.448-6.362-3.941.005-.752.564-1.442 1.309-1.442 1.873 0 1.855 2.795 4.837 2.795 2.093 0 2.807-1.146 2.807-1.944 0-2.886-9.043-1.117-9.043-6.543 0-2.938 2.402-4.962 6.179-4.741 3.602.213 5.713 1.803 5.917 3.289.101.971-.542 1.727-1.659 1.727-1.628 0-1.795-2.181-4.6-2.181-1.266 0-2.334.528-2.334 1.674 0 2.395 8.99 1.005 8.99 6.276-.001 3.039-2.423 5.031-6.041 5.031z"/>
	</symbol>

	<symbol id="rss" viewBox="0 0 24 24">
		<title>RSS</title>
		<path d="M6.503 20.752c0 1.794-1.456 3.248-3.251 3.248-1.796 0-3.252-1.454-3.252-3.248 0-1.794 1.456-3.248 3.252-3.248 1.795.001 3.251 1.454 3.251 3.248zm-6.503-12.572v4.811c6.05.062 10.96 4.966 11.022 11.009h4.817c-.062-8.71-7.118-15.758-15.839-15.82zm0-3.368c10.58.046 19.152 8.594 19.183 19.188h4.817c-.03-13.231-10.755-23.954-24-24v4.812z"/>
	</symbol>


	<!-- UI -->

	<symbol id="home" viewBox="0 0 24 24">
		<title>Home</title>
		<path d="M21 13v10h-6v-6h-6v6h-6v-10h-3l12-12 12 12h-3zm-1-5.907v-5.093h-3v2.093l3 3z"/>
	</symbol>

	<symbol id="blog" viewBox="0 0 24 24">
		<title>Blog</title>
		<path d="M12.014 6.54s2.147-3.969 3.475-6.54l8.511 8.511c-2.583 1.321-6.556 3.459-6.556 3.459l-5.43-5.43zm-8.517 6.423s-1.339 5.254-3.497 8.604l.827.826 3.967-3.967c.348-.348.569-.801.629-1.288.034-.27.153-.532.361-.74.498-.498 1.306-.498 1.803 0 .498.499.498 1.305 0 1.803-.208.209-.469.328-.74.361-.488.061-.94.281-1.288.63l-3.967 3.968.826.84c3.314-2.133 8.604-3.511 8.604-3.511l4.262-7.837-3.951-3.951-7.836 4.262z"/>
	</symbol>

	<symbol id="search" viewBox="0 0 24 24">
		<title>Search</title>
		<path d="M23.822 20.88l-6.353-6.354c.93-1.465 1.467-3.2 1.467-5.059.001-5.219-4.247-9.467-9.468-9.467s-9.468 4.248-9.468 9.468c0 5.221 4.247 9.469 9.468 9.469 1.768 0 3.421-.487 4.839-1.333l6.396 6.396 3.119-3.12zm-20.294-11.412c0-3.273 2.665-5.938 5.939-5.938 3.275 0 5.94 2.664 5.94 5.938 0 3.275-2.665 5.939-5.94 5.939-3.274 0-5.939-2.664-5.939-5.939z"/>
	</symbol>

	<symbol id="close" viewBox="0 0 24 24">
		<title>Close</title>
		<path d="M24 20.188l-8.315-8.209 8.2-8.282-3.697-3.697-8.212 8.318-8.31-8.203-3.666 3.666 8.321 8.24-8.206 8.313 3.666 3.666 8.237-8.318 8.285 8.203z"/>
	</symbol>

	<symbol id="calendar" viewBox="0 0 24 24">
		<title>Calendar</title>
		<path d="M20 19h-4v-4h4v4zm-6-10h-4v4h4v-4zm6 0h-4v4h4v-4zm-12 6h-4v4h4v-4zm16-14v22h-24v-22h24zm-2 6h-20v14h20v-14zm-8 8h-4v4h4v-4zm-6-6h-4v4h4v-4z"/>
	</symbol>

	<symbol id="folder" viewBox="0 0 24 24">
		<title>Folder</title>
		<path d="M24 22h-24v-14h7.262c1.559 0 2.411-.708 5.07-3h11.668v17zm-16.738-16c.64 0 1.11-.271 2.389-1.34l-2.651-2.66h-7v4h7.262z"/>
	</symbol>

	<symbol id="tag" viewBox="0 0 24 24">
		<title>Tag</title>
		<path d="M10.773 21.585l-1.368 1.415-10.405-10.429v-8.571h2v7.719l9.773 9.866zm1.999-20.585h-9.772v9.772l12.074 12.228 9.926-9.85-12.228-12.15zm-4.772 7c-1.105 0-2-.895-2-2s.895-2 2-2 2 .895 2 2-.895 2-2 2z"/>
	</symbol>

	<symbol id="post" viewBox="0 0 24 24">
		<title>Post</title>
		<path d="M14.568.075c2.202 1.174 5.938 4.883 7.432 6.881-1.286-.9-4.044-1.657-6.091-1.179.222-1.468-.185-4.534-1.341-5.702zm7.432 10.925v13h-20v-24h8.409c4.857 0 3.335 8 3.335 8 3.009-.745 8.256-.419 8.256 3zm-16 5h5v-4h-5v4zm12 2h-12v1h12v-1zm0-3h-5v1h5v-1zm0-3h-5v1h5v-1z"/>
	</symbol>

	<symbol id="page" viewBox="0 0 24 24">
		<title>Page</title>
		<path d="M2 5v-5h20v5h-20zm20 2v17h-20v-17h20zm-4 11h-12v1h12v-1zm0-3h-12v1h12v-1zm0-3h-12v1h12v-1z"/>
	</symbol>

	<symbol id="comments" viewBox="0 0 24 24">
		<title>Comments</title>
		<path d="M20 9.999v-2h4v12.001h-3v4l-5.333-4h-7.667v-4h12v-6.001zm-2 4.001h-9.667l-5.333 4v-4h-3v-14.001h18v14.001z"/>
	</symbol>

	<symbol id="user" viewBox="0 0 24 24">
		<title>User</title>
		<path d="M20.822 18.096c-3.439-.794-6.64-1.49-5.09-4.418 4.72-8.912 1.251-13.678-3.732-13.678-5.082 0-8.464 4.949-3.732 13.678 1.597 2.945-1.725 3.641-5.09 4.418-3.073.71-3.188 2.236-3.178 4.904l.004 1h23.99l.004-.969c.012-2.688-.092-4.222-3.176-4.935z"/>
	</symbol>

	<symbol id="asterisk" viewBox="0 0 24 24">
		<title>Asterisk</title>
		<path d="M12 .288l2.833 8.718h9.167l-7.417 5.389 2.833 8.718-7.416-5.388-7.417 5.388 2.833-8.718-7.416-5.389h9.167z"/>
	</symbol>

	<symbol id="news" viewBox="0 0 24 24">
		<title>News</title>
		<path d="M7 16h13v1h-13v-1zm13-3h-13v1h13v-1zm0-6h-5v1h5v-1zm0 3h-5v1h5v-1zm-17-8v17.199c0 .771-1 .771-1 0v-15.199h-2v15.98c0 1.115.905 2.02 2.02 2.02h19.958c1.117 0 2.022-.904 2.022-2.02v-17.98h-21zm19 17h-17v-15h17v15zm-9-12h-6v4h6v-4z"/>
	</symbol>

</svg>