<?xml version="1.0" encoding="UTF-8" standalone="no"?><!DOCTYPE svg PUBLIC "-//W3C//DTD SVG 1.1//EN" "http://www.w3.org/Graphics/SVG/1.1/DTD/svg11.dtd"><svg width="100%" height="100%" viewBox="0 0 80 80" version="1.1" xmlns="http://www.w3.org/2000/svg" xmlns:xlink="http://www.w3.org/1999/xlink" xml:space="preserve" xmlns:serif="http://www.serif.com/" style="fill-rule:evenodd;clip-rule:evenodd;stroke-linejoin:round;stroke-miterlimit:1.41421;"><path d="M36.667,10.002l0,6.667l-13.332,0l0,-6.667l13.332,0Zm9.999,19.999l-8.396,13.332l-8.269,-6.533l-13.332,19.865l46.662,0l-16.665,-26.664Zm-24.998,3.333c2.76,0 5,-2.237 5,-5c0,-2.76 -2.24,-4.999 -5,-4.999c-2.76,0 -4.999,2.239 -4.999,4.999c0,2.763 2.239,5 4.999,5Zm34.997,29.997l-13.332,0l0,6.667l13.332,0l0,-6.667Zm-19.998,6.667l0,-6.667l-13.332,0l0,6.667l13.332,0Zm6.666,-59.996l0,6.667l13.332,0l0,-6.667l-13.332,0Zm19.998,0l0,6.667l10,0l0,9.999l6.666,0l0,-16.666l-16.666,0Zm-56.662,6.667l10,0l0,-6.667l-16.666,0l0,16.666l6.666,0l0,-9.999Zm66.662,46.662l-10,0l0,6.667l16.666,0l0,-16.666l-6.666,0l0,9.999Zm0,-16.665l6.666,0l0,-13.332l-6.666,0l0,13.332Zm-66.662,-13.332l-6.666,0l0,13.332l6.666,0l0,-13.332Zm10,29.997l-10,0l0,-9.999l-6.666,0l0,16.666l16.666,0l0,-6.667Z" style="fill:#808080;fill-rule:nonzero;"/></svg>